<mxfile host="65bd71144e">
    <diagram id="Wl567JedKcMVY3Tsdymd" name="entitys">
        <mxGraphModel dx="270" dy="381" grid="1" gridSize="10" guides="1" tooltips="1" connect="1" arrows="1" fold="1" page="1" pageScale="1" pageWidth="827" pageHeight="1169" math="0" shadow="0">
            <root>
                <mxCell id="0"/>
                <mxCell id="1" parent="0"/>
                <mxCell id="2" value="" style="rounded=0;whiteSpace=wrap;html=1;" parent="1" vertex="1">
                    <mxGeometry x="110" width="630" height="290" as="geometry"/>
                </mxCell>
                <mxCell id="21" style="edgeStyle=none;html=1;entryX=0;entryY=0;entryDx=0;entryDy=0;" parent="1" source="4" target="10" edge="1">
                    <mxGeometry relative="1" as="geometry"/>
                </mxCell>
                <mxCell id="22" value="&lt;p style=&quot;line-height: 2&quot;&gt;&lt;font style=&quot;font-size: 17px&quot;&gt;1:N&lt;/font&gt;&lt;/p&gt;" style="edgeLabel;html=1;align=center;verticalAlign=middle;resizable=0;points=[];" parent="21" vertex="1" connectable="0">
                    <mxGeometry x="-0.1426" y="1" relative="1" as="geometry">
                        <mxPoint as="offset"/>
                    </mxGeometry>
                </mxCell>
                <object label="User" id="4">
                    <mxCell style="swimlane;fontStyle=0;childLayout=stackLayout;horizontal=1;startSize=30;horizontalStack=0;resizeParent=1;resizeParentMax=0;resizeLast=0;collapsible=1;marginBottom=0;" parent="1" vertex="1">
                        <mxGeometry x="130" y="20" width="140" height="150" as="geometry">
                            <mxRectangle x="20" y="20" width="60" height="30" as="alternateBounds"/>
                        </mxGeometry>
                    </mxCell>
                </object>
                <mxCell id="15" value="ID:*" style="text;strokeColor=none;fillColor=none;align=left;verticalAlign=middle;spacingLeft=4;spacingRight=4;overflow=hidden;points=[[0,0.5],[1,0.5]];portConstraint=eastwest;rotatable=0;" parent="4" vertex="1">
                    <mxGeometry y="30" width="140" height="30" as="geometry"/>
                </mxCell>
                <mxCell id="5" value="Nome:*" style="text;strokeColor=none;fillColor=none;align=left;verticalAlign=middle;spacingLeft=4;spacingRight=4;overflow=hidden;points=[[0,0.5],[1,0.5]];portConstraint=eastwest;rotatable=0;" parent="4" vertex="1">
                    <mxGeometry y="60" width="140" height="30" as="geometry"/>
                </mxCell>
                <mxCell id="6" value="email*" style="text;strokeColor=none;fillColor=none;align=left;verticalAlign=middle;spacingLeft=4;spacingRight=4;overflow=hidden;points=[[0,0.5],[1,0.5]];portConstraint=eastwest;rotatable=0;" parent="4" vertex="1">
                    <mxGeometry y="90" width="140" height="30" as="geometry"/>
                </mxCell>
                <mxCell id="7" value="senha:*" style="text;strokeColor=none;fillColor=none;align=left;verticalAlign=middle;spacingLeft=4;spacingRight=4;overflow=hidden;points=[[0,0.5],[1,0.5]];portConstraint=eastwest;rotatable=0;" parent="4" vertex="1">
                    <mxGeometry y="120" width="140" height="30" as="geometry"/>
                </mxCell>
                <object label="task" id="10">
                    <mxCell style="swimlane;fontStyle=0;childLayout=stackLayout;horizontal=1;startSize=30;horizontalStack=0;resizeParent=1;resizeParentMax=0;resizeLast=0;collapsible=1;marginBottom=0;" parent="1" vertex="1">
                        <mxGeometry x="490" y="20" width="140" height="240" as="geometry">
                            <mxRectangle x="60" y="60" width="60" height="30" as="alternateBounds"/>
                        </mxGeometry>
                    </mxCell>
                </object>
                <mxCell id="16" value="ID:*" style="text;strokeColor=none;fillColor=none;align=left;verticalAlign=middle;spacingLeft=4;spacingRight=4;overflow=hidden;points=[[0,0.5],[1,0.5]];portConstraint=eastwest;rotatable=0;" parent="10" vertex="1">
                    <mxGeometry y="30" width="140" height="30" as="geometry"/>
                </mxCell>
                <mxCell id="17" value="id_user:*" style="text;strokeColor=none;fillColor=none;align=left;verticalAlign=middle;spacingLeft=4;spacingRight=4;overflow=hidden;points=[[0,0.5],[1,0.5]];portConstraint=eastwest;rotatable=0;" parent="10" vertex="1">
                    <mxGeometry y="60" width="140" height="30" as="geometry"/>
                </mxCell>
                <mxCell id="18" value="dia da semana:*" style="text;strokeColor=none;fillColor=none;align=left;verticalAlign=middle;spacingLeft=4;spacingRight=4;overflow=hidden;points=[[0,0.5],[1,0.5]];portConstraint=eastwest;rotatable=0;" parent="10" vertex="1">
                    <mxGeometry y="90" width="140" height="30" as="geometry"/>
                </mxCell>
                <mxCell id="11" value="Hora:*" style="text;strokeColor=none;fillColor=none;align=left;verticalAlign=middle;spacingLeft=4;spacingRight=4;overflow=hidden;points=[[0,0.5],[1,0.5]];portConstraint=eastwest;rotatable=0;" parent="10" vertex="1">
                    <mxGeometry y="120" width="140" height="30" as="geometry"/>
                </mxCell>
                <mxCell id="12" value="task*" style="text;strokeColor=none;fillColor=none;align=left;verticalAlign=middle;spacingLeft=4;spacingRight=4;overflow=hidden;points=[[0,0.5],[1,0.5]];portConstraint=eastwest;rotatable=0;" parent="10" vertex="1">
                    <mxGeometry y="150" width="140" height="30" as="geometry"/>
                </mxCell>
                <mxCell id="13" value="status:*" style="text;strokeColor=none;fillColor=none;align=left;verticalAlign=middle;spacingLeft=4;spacingRight=4;overflow=hidden;points=[[0,0.5],[1,0.5]];portConstraint=eastwest;rotatable=0;" parent="10" vertex="1">
                    <mxGeometry y="180" width="140" height="30" as="geometry"/>
                </mxCell>
                <mxCell id="14" value="descrição:" style="text;strokeColor=none;fillColor=none;align=left;verticalAlign=middle;spacingLeft=4;spacingRight=4;overflow=hidden;points=[[0,0.5],[1,0.5]];portConstraint=eastwest;rotatable=0;" parent="10" vertex="1">
                    <mxGeometry y="210" width="140" height="30" as="geometry"/>
                </mxCell>
            </root>
        </mxGraphModel>
    </diagram>
    <diagram id="oHDqwYb0Tum30mufE5s1" name="arquitetura">
        <mxGraphModel dx="1930" dy="2486" grid="1" gridSize="10" guides="1" tooltips="1" connect="1" arrows="1" fold="1" page="1" pageScale="1" pageWidth="827" pageHeight="1169" math="0" shadow="0">
            <root>
                <mxCell id="fX6uAsFmDHwDGf4h2YZ0-0"/>
                <mxCell id="fX6uAsFmDHwDGf4h2YZ0-1" parent="fX6uAsFmDHwDGf4h2YZ0-0"/>
                <mxCell id="fX6uAsFmDHwDGf4h2YZ0-35" value="" style="group" vertex="1" connectable="0" parent="fX6uAsFmDHwDGf4h2YZ0-1">
                    <mxGeometry x="190" width="880" height="680" as="geometry"/>
                </mxCell>
                <mxCell id="fX6uAsFmDHwDGf4h2YZ0-2" value="" style="rounded=0;whiteSpace=wrap;html=1;fontSize=17;strokeColor=#CCCC00;container=1;" vertex="1" parent="fX6uAsFmDHwDGf4h2YZ0-35">
                    <mxGeometry y="170" width="880" height="510" as="geometry"/>
                </mxCell>
                <mxCell id="fX6uAsFmDHwDGf4h2YZ0-14" value="" style="group" vertex="1" connectable="0" parent="fX6uAsFmDHwDGf4h2YZ0-2">
                    <mxGeometry x="10" width="880" height="510" as="geometry"/>
                </mxCell>
                <mxCell id="fX6uAsFmDHwDGf4h2YZ0-3" value="Database" style="text;html=1;strokeColor=#CCCC00;fillColor=none;align=center;verticalAlign=middle;whiteSpace=wrap;rounded=0;fontSize=17;" vertex="1" parent="fX6uAsFmDHwDGf4h2YZ0-14">
                    <mxGeometry x="-10" width="120" height="30" as="geometry"/>
                </mxCell>
                <mxCell id="fX6uAsFmDHwDGf4h2YZ0-4" value="" style="rounded=0;whiteSpace=wrap;html=1;fontSize=17;strokeColor=#CCCC00;fillColor=none;" vertex="1" parent="fX6uAsFmDHwDGf4h2YZ0-14">
                    <mxGeometry x="20" y="40" width="330" height="440" as="geometry"/>
                </mxCell>
                <mxCell id="fX6uAsFmDHwDGf4h2YZ0-5" value="" style="rounded=0;whiteSpace=wrap;html=1;fontSize=17;strokeColor=#CCCC00;fillColor=none;" vertex="1" parent="fX6uAsFmDHwDGf4h2YZ0-14">
                    <mxGeometry x="420" y="40" width="410" height="440" as="geometry"/>
                </mxCell>
                <mxCell id="fX6uAsFmDHwDGf4h2YZ0-6" value="mongo" style="text;html=1;strokeColor=#CCCC00;fillColor=none;align=center;verticalAlign=middle;whiteSpace=wrap;rounded=0;fontSize=17;" vertex="1" parent="fX6uAsFmDHwDGf4h2YZ0-14">
                    <mxGeometry x="20" y="40" width="120" height="30" as="geometry"/>
                </mxCell>
                <mxCell id="fX6uAsFmDHwDGf4h2YZ0-10" value="connection database" style="rounded=0;whiteSpace=wrap;html=1;fontSize=17;strokeColor=#CCCC00;fillColor=none;" vertex="1" parent="fX6uAsFmDHwDGf4h2YZ0-14">
                    <mxGeometry x="30" y="100" width="170" height="30" as="geometry"/>
                </mxCell>
                <mxCell id="fX6uAsFmDHwDGf4h2YZ0-11" value="" style="group" vertex="1" connectable="0" parent="fX6uAsFmDHwDGf4h2YZ0-14">
                    <mxGeometry x="30" y="170" width="300" height="300" as="geometry"/>
                </mxCell>
                <mxCell id="fX6uAsFmDHwDGf4h2YZ0-8" value="" style="rounded=0;whiteSpace=wrap;html=1;fontSize=17;strokeColor=#CCCC00;fillColor=none;" vertex="1" parent="fX6uAsFmDHwDGf4h2YZ0-11">
                    <mxGeometry width="300" height="300" as="geometry"/>
                </mxCell>
                <mxCell id="fX6uAsFmDHwDGf4h2YZ0-9" value="schemas" style="text;html=1;strokeColor=#CCCC00;fillColor=none;align=center;verticalAlign=middle;whiteSpace=wrap;rounded=0;fontSize=17;" vertex="1" parent="fX6uAsFmDHwDGf4h2YZ0-11">
                    <mxGeometry width="120" height="41.86046511627907" as="geometry"/>
                </mxCell>
                <mxCell id="fX6uAsFmDHwDGf4h2YZ0-12" value="user_schema" style="rounded=0;whiteSpace=wrap;html=1;fontSize=17;strokeColor=#CCCC00;fillColor=none;" vertex="1" parent="fX6uAsFmDHwDGf4h2YZ0-11">
                    <mxGeometry x="20" y="80" width="120" height="60" as="geometry"/>
                </mxCell>
                <mxCell id="fX6uAsFmDHwDGf4h2YZ0-13" value="taks_schema" style="rounded=0;whiteSpace=wrap;html=1;fontSize=17;strokeColor=#CCCC00;fillColor=none;" vertex="1" parent="fX6uAsFmDHwDGf4h2YZ0-11">
                    <mxGeometry x="20" y="180" width="120" height="60" as="geometry"/>
                </mxCell>
                <mxCell id="fX6uAsFmDHwDGf4h2YZ0-7" value="repositorys" style="text;html=1;strokeColor=#CCCC00;fillColor=none;align=center;verticalAlign=middle;whiteSpace=wrap;rounded=0;fontSize=17;container=1;" vertex="1" parent="fX6uAsFmDHwDGf4h2YZ0-14">
                    <mxGeometry x="420" y="40" width="120" height="30" as="geometry"/>
                </mxCell>
                <mxCell id="fX6uAsFmDHwDGf4h2YZ0-24" value="CRUD" style="rounded=0;whiteSpace=wrap;html=1;fontSize=17;strokeColor=#CCCC00;fillColor=none;" vertex="1" parent="fX6uAsFmDHwDGf4h2YZ0-14">
                    <mxGeometry x="440" y="120" width="370" height="140" as="geometry"/>
                </mxCell>
                <mxCell id="fX6uAsFmDHwDGf4h2YZ0-25" value="CRUD" style="rounded=0;whiteSpace=wrap;html=1;fontSize=17;strokeColor=#CCCC00;fillColor=none;" vertex="1" parent="fX6uAsFmDHwDGf4h2YZ0-14">
                    <mxGeometry x="440" y="310" width="370" height="140" as="geometry"/>
                </mxCell>
                <mxCell id="fX6uAsFmDHwDGf4h2YZ0-26" value="user" style="text;html=1;strokeColor=#CCCC00;fillColor=none;align=center;verticalAlign=middle;whiteSpace=wrap;rounded=0;fontSize=17;" vertex="1" parent="fX6uAsFmDHwDGf4h2YZ0-14">
                    <mxGeometry x="440" y="120" width="120" height="30" as="geometry"/>
                </mxCell>
                <mxCell id="fX6uAsFmDHwDGf4h2YZ0-27" value="taks" style="text;html=1;strokeColor=#CCCC00;fillColor=none;align=center;verticalAlign=middle;whiteSpace=wrap;rounded=0;fontSize=17;" vertex="1" parent="fX6uAsFmDHwDGf4h2YZ0-14">
                    <mxGeometry x="440" y="310" width="120" height="30" as="geometry"/>
                </mxCell>
                <mxCell id="fX6uAsFmDHwDGf4h2YZ0-29" style="edgeStyle=orthogonalEdgeStyle;html=1;entryX=0.003;entryY=0.7;entryDx=0;entryDy=0;entryPerimeter=0;fontSize=17;strokeWidth=4;fillColor=#e51400;strokeColor=#B20000;" edge="1" parent="fX6uAsFmDHwDGf4h2YZ0-14" source="fX6uAsFmDHwDGf4h2YZ0-12" target="fX6uAsFmDHwDGf4h2YZ0-24">
                    <mxGeometry relative="1" as="geometry">
                        <Array as="points">
                            <mxPoint x="305" y="280"/>
                            <mxPoint x="305" y="250"/>
                            <mxPoint x="420" y="250"/>
                            <mxPoint x="420" y="218"/>
                        </Array>
                    </mxGeometry>
                </mxCell>
                <mxCell id="fX6uAsFmDHwDGf4h2YZ0-30" style="edgeStyle=orthogonalEdgeStyle;html=1;entryX=0;entryY=0.75;entryDx=0;entryDy=0;fontSize=17;strokeWidth=4;fillColor=#e51400;strokeColor=#B20000;" edge="1" parent="fX6uAsFmDHwDGf4h2YZ0-14" source="fX6uAsFmDHwDGf4h2YZ0-13" target="fX6uAsFmDHwDGf4h2YZ0-27">
                    <mxGeometry relative="1" as="geometry">
                        <Array as="points">
                            <mxPoint x="440" y="380"/>
                        </Array>
                    </mxGeometry>
                </mxCell>
                <mxCell id="fX6uAsFmDHwDGf4h2YZ0-32" value="" style="shape=cylinder3;whiteSpace=wrap;html=1;boundedLbl=1;backgroundOutline=1;size=15;fontSize=17;strokeColor=#005700;fillColor=#008a00;fontColor=#ffffff;strokeWidth=2;" vertex="1" parent="fX6uAsFmDHwDGf4h2YZ0-35">
                    <mxGeometry x="310" width="190" height="100" as="geometry"/>
                </mxCell>
                <mxCell id="fX6uAsFmDHwDGf4h2YZ0-33" style="edgeStyle=orthogonalEdgeStyle;html=1;entryX=0;entryY=1;entryDx=0;entryDy=-15;entryPerimeter=0;fontSize=17;strokeWidth=4;fillColor=#60a917;strokeColor=#2D7600;" edge="1" parent="fX6uAsFmDHwDGf4h2YZ0-35" source="fX6uAsFmDHwDGf4h2YZ0-10" target="fX6uAsFmDHwDGf4h2YZ0-32">
                    <mxGeometry relative="1" as="geometry"/>
                </mxCell>
                <mxCell id="fX6uAsFmDHwDGf4h2YZ0-28" style="edgeStyle=orthogonalEdgeStyle;html=1;entryX=0.5;entryY=1;entryDx=0;entryDy=0;fontSize=17;fillColor=#e51400;strokeColor=#B20000;strokeWidth=4;exitX=1.013;exitY=0.057;exitDx=0;exitDy=0;exitPerimeter=0;entryPerimeter=0;" edge="1" parent="fX6uAsFmDHwDGf4h2YZ0-35" source="fX6uAsFmDHwDGf4h2YZ0-8" target="fX6uAsFmDHwDGf4h2YZ0-32">
                    <mxGeometry relative="1" as="geometry">
                        <Array as="points">
                            <mxPoint x="405" y="357"/>
                        </Array>
                    </mxGeometry>
                </mxCell>
            </root>
        </mxGraphModel>
    </diagram>
</mxfile>